# xmcd
# 
# Track frame offsets:
#     150
#     11812
#     23510
#     35732
#     48515
#     62157
#     72200
#     81647
#     95200
#     112055
#     127660
#     140547
# 
# Disc length: 2021
# 
# Revision: 4
# Processed by: cddbd v1.5.2PL0 Copyright (c) Steve Scherf et al.
# Submitted via: fre:ac v1.0.31
# 
DISCID=ac07e30c
DTITLE=Patsy Cline - Patsy Cline 12 Greatest Hits
DYEAR=1988
DGENRE=Country
TTITLE0=Walkin' After Midnight
TTITLE1=Sweet Dreams (Of You)
TTITLE2=Crazy
TTITLE3=I Fall To Pieces
TTITLE4=So Wrong
TTITLE5=Strange
TTITLE6=Back In Baby's Arms
TTITLE7=She's Got You
TTITLE8=Faded Love
TTITLE9=Why Can't He Be You
TTITLE10=You're Stronger Than Me
TTITLE11=Leavin' On Your Mind
EXTD=
EXTT0=
EXTT1=
EXTT2=
EXTT3=
EXTT4=
EXTT5=
EXTT6=
EXTT7=
EXTT8=
EXTT9=
EXTT10=
EXTT11=
PLAYORDER=
